<svg width="35" height="35" viewBox="0 0 35 35" fill="none" xmlns="http://www.w3.org/2000/svg">
<path d="M5.35743 20.5095H2.22537C1.89894 20.5095 1.61014 20.3903 1.35998 20.153C1.11999 19.8984 1 19.6081 1 19.2822V15.6423C1 15.3154 1.11999 15.0251 1.35998 14.7715C1.61116 14.5342 1.89894 14.415 2.22537 14.415H8.33085C8.65423 14.415 8.94303 14.5342 9.19624 14.7715C9.43317 15.0251 9.55215 15.3164 9.55215 15.6423V19.2822C9.55215 19.6092 9.43317 19.8994 9.19624 20.153C8.94201 20.3903 8.65423 20.5095 8.33085 20.5095H7.14311V20.9199H5.35743V20.5095ZM7.14311 19.102H7.99222V15.8225H2.55993V19.102H5.35743V17.946H7.14311V19.102Z" fill="#360D04"/>
<path d="M9.81552 22.7613C9.81552 22.742 9.82772 22.7287 9.85314 22.7236H11.3378C11.3602 22.7236 11.3724 22.7359 11.3754 22.7613H14.9011V24.0935H11.3754V28.7845C11.3754 28.8038 11.3632 28.8171 11.3378 28.8221H9.85314C9.83382 28.8221 9.8206 28.8099 9.81552 28.7845V24.0935H6.28992V22.7613H9.81552Z" fill="#360D04"/>
<path d="M18.8103 18.2425C18.4758 19.596 17.0399 20.3568 15.7352 19.871C15.059 19.6205 14.5373 19.0695 14.3197 18.381L11.0849 8.07015C10.97 7.7035 11.448 7.45093 11.6849 7.75239L18.3751 16.232C18.8226 16.7983 18.9832 17.5408 18.8103 18.2425Z" fill="#360D04"/>
<path d="M6.25351 7.43889L5.55592 6.74023C4.41597 8.10496 3.49872 9.66218 2.86011 11.3559L3.53025 11.6156C4.18412 10.0584 5.11153 8.64576 6.25351 7.43788V7.43889Z" fill="#360D04"/>
<path d="M10.3903 4.42681L9.82488 3.14355C8.42257 3.95628 7.15449 4.97677 6.06335 6.16226L6.79552 6.89554C7.85107 5.89542 9.0622 5.05927 10.3903 4.42681Z" fill="#360D04"/>
<path d="M15.9671 3.08889V1.10596C14.0167 1.33104 12.172 1.90748 10.5002 2.77113L11.0921 4.11447C12.6022 3.49627 14.2455 3.13472 15.9671 3.08787V3.08889Z" fill="#360D04"/>
<path d="M28.9183 11.0394L32.028 9.66555C31.1657 7.9963 30.0196 6.49917 28.6529 5.2373L26.4543 7.43921C27.4529 8.49636 28.2878 9.70934 28.9193 11.0384L28.9183 11.0394Z" fill="#360D04"/>
<path d="M21.02 3.88936L21.9311 1.53571C20.6183 1.18638 19.2404 1 17.8177 1C17.4537 1 17.0927 1.01324 16.7347 1.03768V3.08987C18.2347 3.13061 19.6746 3.40967 21.019 3.88936H21.02Z" fill="#360D04"/>
<path d="M30.2506 16.6245H33.7986C33.7457 14.3921 33.2373 12.2726 32.3617 10.3569L29.2256 11.742C29.8428 13.2544 30.2038 14.9003 30.2506 16.6245Z" fill="#360D04"/>
<path d="M25.9105 6.89564L28.0744 4.72837C26.5023 3.41049 24.6739 2.38999 22.6747 1.75244L21.7391 4.1672C23.294 4.82207 24.7044 5.7509 25.9105 6.89462V6.89564Z" fill="#360D04"/>
<path d="M26.4507 26.582L28.6492 28.7839C30.2071 27.3449 31.4793 25.6013 32.3701 23.6448L29.1739 22.4033C28.5201 23.9605 27.5927 25.3731 26.4507 26.581V26.582Z" fill="#360D04"/>
<path d="M11.6822 30.1313L11.13 31.5562C12.631 32.2497 14.257 32.7162 15.9664 32.9138V30.9308C14.4665 30.8901 13.0265 30.611 11.6822 30.1313Z" fill="#360D04"/>
<path d="M22.3138 29.5942L23.3836 32.0232C25.1063 31.3826 26.6886 30.4528 28.0715 29.2928L25.9076 27.1255C24.852 28.1256 23.6409 28.9618 22.3138 29.5942Z" fill="#360D04"/>
<path d="M30.2508 17.395C30.2101 18.8972 29.9315 20.3394 29.4525 21.6858L32.673 22.9364C33.3584 21.2163 33.754 19.3484 33.7998 17.395H30.2518H30.2508Z" fill="#360D04"/>
<path d="M16.7384 30.9309V32.9831C17.0964 33.0075 17.4574 33.0208 17.8214 33.0208C19.5074 33.0208 21.1324 32.759 22.6578 32.2742L21.6145 29.9043C20.1044 30.5225 18.461 30.8841 16.7394 30.9309H16.7384Z" fill="#360D04"/>
</svg>
