<svg width="62" height="60" viewBox="0 0 62 60" fill="none" xmlns="http://www.w3.org/2000/svg">
<g clip-path="url(#clip0_763_5902)">
<path d="M8.16741 36.5575H2.29679C1.68495 36.5575 1.14363 36.3343 0.674741 35.8896C0.224914 35.4125 0 34.8686 0 34.2579V27.4373C0 26.8247 0.224914 26.2808 0.674741 25.8056C1.14553 25.361 1.68495 25.1377 2.29679 25.1377H13.7407C14.3468 25.1377 14.8881 25.361 15.3627 25.8056C15.8069 26.2808 16.0299 26.8266 16.0299 27.4373V34.2579C16.0299 34.8705 15.8069 35.4144 15.3627 35.8896C14.8862 36.3343 14.3468 36.5575 13.7407 36.5575H11.5144V37.3266H8.16741V36.5575ZM11.5144 33.9201H13.106V27.7751H2.92388V33.9201H8.16741V31.7541H11.5144V33.9201Z" fill="#A83D1A"/>
<path d="M16.5216 40.7747C16.5216 40.7385 16.5445 40.7136 16.5921 40.7041H19.375C19.4169 40.7041 19.4398 40.727 19.4455 40.7747H26.0537V43.2709H19.4455V52.061C19.4455 52.0972 19.4226 52.122 19.375 52.1316H16.5921C16.5559 52.1316 16.5311 52.1087 16.5216 52.061V43.2709H9.91333V40.7747H16.5216Z" fill="#A83D1A"/>
<path d="M33.3825 32.3094C32.7554 34.8457 30.0641 36.2713 27.6186 35.361C26.3511 34.8915 25.3733 33.8591 24.9654 32.569L18.9023 13.2484C18.6869 12.5613 19.5827 12.0881 20.0269 12.6529L32.5667 28.5423C33.4054 29.6033 33.7066 30.9945 33.3825 32.3094Z" fill="#A83D1A"/>
<path d="M9.84852 12.067L8.54097 10.7578C6.40429 13.3151 4.68504 16.233 3.48804 19.4067L4.74412 19.8933C5.96971 16.9754 7.70803 14.3284 9.84852 12.0651V12.067Z" fill="#A83D1A"/>
<path d="M17.6022 6.42216L16.5424 4.01758C13.914 5.54048 11.5371 7.45269 9.49194 9.67407L10.8643 11.0481C12.8428 9.17407 15.1129 7.60727 17.6022 6.42216Z" fill="#A83D1A"/>
<path d="M28.057 3.91584V0.200195C24.4012 0.621951 20.9436 1.7021 17.8101 3.32042L18.9194 5.8376C21.7499 4.6792 24.83 4.00172 28.057 3.91394V3.91584Z" fill="#A83D1A"/>
<path d="M52.3286 18.8106L58.1573 16.2362C56.5409 13.1083 54.3928 10.303 51.8311 7.93848L47.7102 12.0644C49.5819 14.0453 51.1468 16.3182 52.3305 18.8087L52.3286 18.8106Z" fill="#A83D1A"/>
<path d="M37.5282 5.41412L39.236 1.00382C36.7753 0.349237 34.1926 0 31.526 0C30.8437 0 30.167 0.0248092 29.4961 0.0706107V3.91603C32.3075 3.99237 35.0065 4.51527 37.5263 5.41412H37.5282Z" fill="#A83D1A"/>
<path d="M54.8293 29.2785H61.4795C61.3803 25.0952 60.4273 21.1239 58.7862 17.5342L52.908 20.1296C54.0649 22.9636 54.7416 26.0475 54.8293 29.2785Z" fill="#A83D1A"/>
<path d="M46.6904 11.0456L50.7465 6.98454C47.7998 4.51507 44.3727 2.60286 40.6254 1.4082L38.8718 5.93301C41.7862 7.16011 44.4299 8.90057 46.6904 11.0437V11.0456Z" fill="#A83D1A"/>
<path d="M47.7083 47.9356L51.8291 52.0616C54.7492 49.365 57.1337 46.0978 58.8034 42.4318L52.8126 40.1055C51.5871 43.0234 49.8487 45.6704 47.7083 47.9337V47.9356Z" fill="#A83D1A"/>
<path d="M20.0267 54.5859L18.9917 57.2558C21.805 58.5554 24.8528 59.4295 28.0569 59.7997V56.084C25.2454 56.0077 22.5465 55.4848 20.0267 54.5859Z" fill="#A83D1A"/>
<path d="M39.9526 53.5801L41.9578 58.1316C45.1866 56.9312 48.1525 55.1888 50.7447 53.0152L46.6886 48.9541C44.7101 50.8281 42.44 52.3949 39.9526 53.5801Z" fill="#A83D1A"/>
<path d="M54.8293 30.7217C54.753 33.5366 54.2308 36.2389 53.333 38.7618L59.3695 41.1053C60.6541 37.882 61.3956 34.382 61.4814 30.7217H54.8312H54.8293Z" fill="#A83D1A"/>
<path d="M29.498 56.0838V59.9292C30.169 59.975 30.8456 59.9999 31.528 59.9999C34.6882 59.9999 37.7341 59.5094 40.5932 58.601L38.6375 54.1602C35.8071 55.3186 32.7269 55.996 29.5 56.0838H29.498Z" fill="#A83D1A"/>
</g>
<defs>
<clipPath id="clip0_763_5902">
<rect width="61.4815" height="60" fill="white"/>
</clipPath>
</defs>
</svg>
