<svg width="102" height="16" viewBox="0 0 102 16" fill="none" xmlns="http://www.w3.org/2000/svg">
<path d="M0.53982 8C0.53982 12.2627 4.27415 15.75 8.9214 15.75C13.5686 15.75 17.303 12.2627 17.303 8C17.303 3.73734 13.5686 0.25 8.9214 0.25C4.27415 0.25 0.53982 3.73734 0.53982 8Z" stroke="#50B5D7" stroke-width="0.5"/>
<ellipse cx="4.31579" cy="4" rx="4.31579" ry="4" transform="matrix(-1 0 0 1 13.2367 4)" fill="#50B5D7"/>
<path d="M84.697 8C84.697 12.2627 88.4314 15.75 93.0786 15.75C97.7259 15.75 101.46 12.2627 101.46 8C101.46 3.73734 97.7259 0.25 93.0786 0.25C88.4314 0.25 84.697 3.73734 84.697 8Z" stroke="#50B5D7" stroke-width="0.5"/>
<ellipse cx="4.31579" cy="4" rx="4.31579" ry="4" transform="matrix(-1 0 0 1 97.3948 4)" fill="#50B5D7"/>
<line x1="8.9209" y1="7.75" x2="90.9209" y2="7.75" stroke="#50B5D7" stroke-width="0.5"/>
</svg>
