<svg width="16" height="216" viewBox="0 0 16 216" fill="none" xmlns="http://www.w3.org/2000/svg">
<path d="M8 0.6177C3.73734 0.6177 0.250001 4.35203 0.25 8.99928C0.25 13.6465 3.73734 17.3809 8 17.3809C12.2627 17.3809 15.75 13.6465 15.75 8.99928C15.75 4.35203 12.2627 0.6177 8 0.6177Z" stroke="#50B5D7" stroke-width="0.5"/>
<ellipse cx="4.31579" cy="4" rx="4.31579" ry="4" transform="matrix(4.37114e-08 -1 -1 -4.37114e-08 12 13.3154)" fill="#50B5D7"/>
<path d="M8 198.618C3.73734 198.618 0.250001 202.352 0.25 206.999C0.25 211.647 3.73734 215.381 8 215.381C12.2627 215.381 15.75 211.647 15.75 206.999C15.75 202.352 12.2627 198.618 8 198.618Z" stroke="#50B5D7" stroke-width="0.5"/>
<ellipse cx="4.31579" cy="4" rx="4.31579" ry="4" transform="matrix(4.37114e-08 -1 -1 -4.37114e-08 12 211.316)" fill="#50B5D7"/>
<line x1="8.25" y1="9" x2="8.24999" y2="205" stroke="#50B5D7" stroke-width="0.5"/>
</svg>
